<?xml version="1.0" encoding="UTF-8"?>

<!DOCTYPE svg PUBLIC '-//W3C//DTD SVG 1.0//EN' 'http://www.w3.org/TR/2001/REC-SVG-20010904/DTD/svg10.dtd'>
<svg style="fill-opacity:1; color-rendering:auto; color-interpolation:auto; text-rendering:auto; stroke:black; stroke-linecap:square; stroke-miterlimit:10; shape-rendering:auto; stroke-opacity:1; fill:black; stroke-dasharray:none; font-weight:normal; stroke-width:1; font-family:&apos;Dialog&apos;; font-style:normal; stroke-linejoin:miter; font-size:12; stroke-dashoffset:0; image-rendering:auto;" xmlns="http://www.w3.org/2000/svg" width="1671.0" xmlns:xlink="http://www.w3.org/1999/xlink" height="533.0">
  <!--Generated by the Batik Graphics2D SVG Generator-->
  <defs id="genericDefs" />
  <g>
    <g style="fill:white; stroke:white;">
      <rect x="0" y="0" width="1901" style="stroke:none;" height="880" />
    </g>
    <g style="font-family:sans-serif; font-size:14;">
      <text xml:space="preserve" x="52" y="313" style="stroke:none;">FlorenceDepartures</text>
      <text xml:space="preserve" x="54" y="423" style="stroke:none;">FlorenceArrivals</text>
      <text xml:space="preserve" x="507" y="323" style="stroke:none;">PistoiaToLucca</text>
      <text xml:space="preserve" x="498" y="383" style="stroke:none;">PistoiaToFlorence</text>
      <text xml:space="preserve" x="686" y="333" style="stroke:none;">Signal</text>
      <text xml:space="preserve" x="779" y="363" style="stroke:none;">FaultyTrain</text>
      <text xml:space="preserve" x="842" y="294" style="stroke:none;">SignalFaulty</text>
      <text xml:space="preserve" x="1018" y="323" style="stroke:none;">LuccaToViareggio</text>
      <text xml:space="preserve" x="1027" y="393" style="stroke:none;">LuccaToPistoia</text>
      <text xml:space="preserve" x="1542" y="283" style="stroke:none;">ViareggioArrivals</text>
      <text xml:space="preserve" x="1540" y="413" style="stroke:none;">ViareggioDepartures</text>
      <text xml:space="preserve" x="204" y="253" style="stroke:none;">EnableFlorencePistoia</text>
      <text xml:space="preserve" x="234" y="463" style="stroke:none;">EnablePistoiaFlorence</text>
      <text xml:space="preserve" x="603" y="203" style="stroke:none;">EnablePistoiaLucca</text>
      <text xml:space="preserve" x="623" y="493" style="stroke:none;">EnableLuccaPistoia</text>
      <text xml:space="preserve" x="1154" y="243" style="stroke:none;">EnableLuccaViareggio</text>
      <text xml:space="preserve" x="1204" y="473" style="stroke:none;">EnableViareggioLucca</text>
      <text xml:space="preserve" x="883" y="197" style="stroke:none;">GatePistoiaToLucca</text>
      <text xml:space="preserve" x="940" y="363" style="stroke:none;">GateFaulty</text>
      <text xml:space="preserve" x="901" y="487" style="stroke:none;">GateLuccaToPistoia</text>
      <text xml:space="preserve" x="106" y="378" style="stroke:none;">FlorenceCleaningService</text>
      <text xml:space="preserve" x="361" y="258" style="stroke:none;">trackFlorencePistoia</text>
      <text xml:space="preserve" x="391" y="468" style="stroke:none;">trackPistoiaFlorence</text>
      <text xml:space="preserve" x="751" y="208" style="stroke:none;">trackPistoiaToLucca</text>
      <text xml:space="preserve" x="760" y="498" style="stroke:none;">trackLuccaPistoia</text>
      <text xml:space="preserve" x="876" y="368" style="stroke:none;">failure</text>
      <text xml:space="preserve" x="1341" y="248" style="stroke:none;">trackLuccaViareggio</text>
      <text xml:space="preserve" x="1361" y="478" style="stroke:none;">trackViareggioLucca</text>
      <text xml:space="preserve" x="1454" y="348" style="stroke:none;">ViareggioCleaningService</text>
      <line x1="185" x2="135" y1="349" style="fill:none;" y2="305" />
      <polygon style="stroke:none;" points=" 125 297 130 306 135 300 125 297" />
      <line x1="125" x2="135" y1="297" style="fill:none;" y2="305" />
      <line x1="455" x2="545" y1="439" style="fill:none;" y2="439" />
      <line x1="545" x2="545" y1="439" style="fill:none;" y2="499" />
      <line x1="545" x2="215" y1="499" style="fill:none;" y2="499" />
      <line x1="215" x2="125" y1="499" style="fill:none;" y2="417" />
      <polygon style="stroke:none;" points=" 115 408 119 417 124 411 115 408" />
      <line x1="115" x2="125" y1="408" style="fill:none;" y2="417" />
      <line x1="425" x2="535" y1="229" style="fill:none;" y2="289" />
      <polygon style="stroke:none;" points=" 545 294 539 286 535 293 545 294" />
      <line x1="545" x2="535" y1="294" style="fill:none;" y2="289" />
      <line x1="965" x2="1041" y1="463" style="fill:none;" y2="462" />
      <line x1="1041" x2="1039" y1="462" style="fill:none;" y2="529" />
      <line x1="1039" x2="605" y1="529" style="fill:none;" y2="529" />
      <line x1="605" x2="555" y1="529" style="fill:none;" y2="359" />
      <line x1="815" x2="815" y1="185" style="fill:none;" y2="329" />
      <polygon style="stroke:none;" points=" 815 329 819 320 811 320 815 329" />
      <line x1="815" x2="815" y1="329" style="fill:none;" y2="329" />
      <line x1="815" x2="867" y1="475" style="fill:none;" y2="475" />
      <line x1="867" x2="867" y1="475" style="fill:none;" y2="388" />
      <line x1="867" x2="835" y1="388" style="fill:none;" y2="357" />
      <polygon style="stroke:none;" points=" 825 348 829 357 834 352 825 348" />
      <line x1="825" x2="835" y1="348" style="fill:none;" y2="357" />
      <line x1="815" x2="867" y1="185" style="fill:none;" y2="250" />
      <polygon style="stroke:none;" points=" 874 260 871 250 865 255 874 260" />
      <line x1="874" x2="867" y1="260" style="fill:none;" y2="250" />
      <line x1="947" x2="1075" y1="173" style="fill:none;" y2="299" />
      <line x1="1425" x2="1515" y1="449" style="fill:none;" y2="449" />
      <line x1="1515" x2="1515" y1="449" style="fill:none;" y2="509" />
      <line x1="1515" x2="1205" y1="509" style="fill:none;" y2="509" />
      <line x1="1205" x2="1093" y1="509" style="fill:none;" y2="388" />
      <polygon style="stroke:none;" points=" 1085 379 1088 388 1094 383 1085 379" />
      <line x1="1085" x2="1093" y1="379" style="fill:none;" y2="388" />
      <line x1="1405" x2="1575" y1="219" style="fill:none;" y2="255" />
      <polygon style="stroke:none;" points=" 1585 257 1577 251 1575 259 1585 257" />
      <line x1="1585" x2="1575" y1="257" style="fill:none;" y2="255" />
      <line x1="1535" x2="1586" y1="319" style="fill:none;" y2="372" />
      <polygon style="stroke:none;" points=" 1595 380 1591 371 1586 376 1595 380" />
      <line x1="1595" x2="1586" y1="380" style="fill:none;" y2="372" />
      <line x1="115" x2="275" y1="289" style="fill:none;" y2="229" />
      <line x1="555" x2="275" y1="359" style="fill:none;" y2="359" />
      <line x1="275" x2="275" y1="359" style="fill:none;" y2="439" />
      <line x1="275" x2="305" y1="439" style="fill:none;" y2="439" />
      <line x1="555" x2="665" y1="299" style="fill:none;" y2="179" />
      <line x1="1075" x2="959" y1="369" style="fill:none;" y2="410" />
      <line x1="959" x2="646" y1="410" style="fill:none;" y2="410" />
      <line x1="646" x2="646" y1="410" style="fill:none;" y2="467" />
      <line x1="646" x2="685" y1="467" style="fill:none;" y2="469" />
      <line x1="1075" x2="1225" y1="299" style="fill:none;" y2="219" />
      <line x1="1605" x2="1235" y1="389" style="fill:none;" y2="389" />
      <line x1="1235" x2="1235" y1="389" style="fill:none;" y2="449" />
      <line x1="1235" x2="1275" y1="449" style="fill:none;" y2="449" />
      <line x1="815" x2="947" y1="173" style="fill:none;" y2="173" />
      <line x1="895" x2="975" y1="339" style="fill:none;" y2="339" />
      <line x1="815" x2="965" y1="463" style="fill:none;" y2="463" />
      <line x1="105" x2="172" y1="399" style="fill:none;" y2="356" />
      <polygon style="stroke:none;" points=" 182 350 172 352 176 358 182 350" />
      <line x1="182" x2="172" y1="350" style="fill:none;" y2="356" />
      <line x1="275" x2="425" y1="229" style="fill:none;" y2="229" />
      <line x1="305" x2="455" y1="439" style="fill:none;" y2="439" />
      <line x1="665" x2="815" y1="179" style="fill:none;" y2="179" />
      <line x1="685" x2="815" y1="469" style="fill:none;" y2="469" />
      <line x1="815" x2="883" y1="339" style="fill:none;" y2="339" />
      <polygon style="stroke:none;" points=" 892 339 883 335 883 343 892 339" />
      <line x1="892" x2="883" y1="339" style="fill:none;" y2="339" />
      <line x1="1225" x2="1405" y1="219" style="fill:none;" y2="219" />
      <line x1="1275" x2="1425" y1="449" style="fill:none;" y2="449" />
      <line x1="1595" x2="1546" y1="259" style="fill:none;" y2="307" />
      <polygon style="stroke:none;" points=" 1538 316 1547 312 1542 307 1538 316" />
      <line x1="1538" x2="1546" y1="316" style="fill:none;" y2="307" />
      <circle style="fill:blue; stroke:none;" r="9.5" cx="114.5" cy="288.5" />
      <circle style="fill:blue; stroke:none;" r="9.5" cx="104.5" cy="398.5" />
      <circle style="fill:blue; stroke:none;" r="9.5" cx="554.5" cy="298.5" />
      <circle style="fill:blue; stroke:none;" r="9.5" cx="554.5" cy="358.5" />
      <circle style="fill:blue; stroke:none;" r="9.5" cx="704.5" cy="308.5" />
      <circle style="fill:blue; stroke:none;" r="9.5" cx="814.5" cy="338.5" />
      <circle style="fill:blue; stroke:none;" r="9.5" cx="880.5" cy="269.5" />
      <circle style="fill:blue; stroke:none;" r="9.5" cx="1074.5" cy="298.5" />
      <circle style="fill:blue; stroke:none;" r="9.5" cx="1074.5" cy="368.5" />
      <circle style="fill:blue; stroke:none;" r="9.5" cx="1594.5" cy="258.5" />
      <circle style="fill:blue; stroke:none;" r="9.5" cx="1604.5" cy="388.5" />
      <polygon style="fill:red; stroke:none;" points=" 265 229 285 219 285 239" />
      <polygon style="fill:red; stroke:none;" points=" 295 439 315 429 315 449" />
      <polygon style="fill:red; stroke:none;" points=" 655 179 675 169 675 189" />
      <polygon style="fill:red; stroke:none;" points=" 675 469 695 459 695 479" />
      <polygon style="fill:red; stroke:none;" points=" 1215 219 1235 209 1235 229" />
      <polygon style="fill:red; stroke:none;" points=" 1265 449 1285 439 1285 459" />
      <polygon style="stroke:none;" points=" 957 173 937 163 937 183" />
      <polygon style="stroke:none;" points=" 985 339 965 329 965 349" />
      <polygon style="stroke:none;" points=" 975 463 955 453 955 473" />
      <rect x="182" y="334" width="6" style="fill:blue; stroke:none;" rx="3" ry="3" height="30" />
      <rect x="422" y="214" width="6" style="fill:blue; stroke:none;" rx="3" ry="3" height="30" />
      <rect x="452" y="424" width="6" style="fill:blue; stroke:none;" rx="3" ry="3" height="30" />
      <rect x="809" y="164" width="6" style="fill:blue; stroke:none;" rx="3" ry="3" height="30" />
      <circle style="fill:blue; stroke:none;" r="3" cx="818" cy="173" />
      <circle style="fill:blue; stroke:none;" r="3" cx="818" cy="185" />
      <rect x="809" y="454" width="6" style="fill:blue; stroke:none;" rx="3" ry="3" height="30" />
      <circle style="fill:blue; stroke:none;" r="3" cx="818" cy="463" />
      <circle style="fill:blue; stroke:none;" r="3" cx="818" cy="475" />
      <rect x="892" y="324" width="6" style="fill:blue; stroke:none;" rx="3" ry="3" height="30" />
      <rect x="1402" y="204" width="6" style="fill:blue; stroke:none;" rx="3" ry="3" height="30" />
      <rect x="1422" y="434" width="6" style="fill:blue; stroke:none;" rx="3" ry="3" height="30" />
      <rect x="1532" y="304" width="6" style="fill:blue; stroke:none;" rx="3" ry="3" height="30" />
      <text xml:space="preserve" x="84" y="204" style="stroke:none;">Florence </text>
      <text xml:space="preserve" x="84" y="223" style="stroke:none;">Terminal </text>
      <text xml:space="preserve" x="525" y="198" style="stroke:none;">Pistoia </text>
      <text xml:space="preserve" x="525" y="217" style="stroke:none;">Station </text>
      <text xml:space="preserve" x="696" y="76" style="stroke:none;">------------------------------------ </text>
      <text xml:space="preserve" x="696" y="95" style="stroke:none;">| Policy 1 : PistoiaFirst </text>
      <text xml:space="preserve" x="696" y="114" style="stroke:none;">------------------------------------ </text>
      <text xml:space="preserve" x="1049" y="189" style="stroke:none;">Lucca </text>
      <text xml:space="preserve" x="1049" y="208" style="stroke:none;">Station </text>
      <text xml:space="preserve" x="1562" y="187" style="stroke:none;">Viareggio </text>
      <text xml:space="preserve" x="1562" y="206" style="stroke:none;">Terminal </text>
    </g>
  </g>
</svg>
