<?xml version="1.0" encoding="UTF-8"?>

<!DOCTYPE svg PUBLIC '-//W3C//DTD SVG 1.0//EN' 'http://www.w3.org/TR/2001/REC-SVG-20010904/DTD/svg10.dtd'>
<svg style="fill-opacity:1; color-rendering:auto; color-interpolation:auto; text-rendering:auto; stroke:black; stroke-linecap:square; stroke-miterlimit:10; shape-rendering:auto; stroke-opacity:1; fill:black; stroke-dasharray:none; font-weight:normal; stroke-width:1; font-family:&apos;Dialog&apos;; font-style:normal; stroke-linejoin:miter; font-size:12; stroke-dashoffset:0; image-rendering:auto;" xmlns="http://www.w3.org/2000/svg" width="1661.0" xmlns:xlink="http://www.w3.org/1999/xlink" height="509.0">
  <!--Generated by the Batik Graphics2D SVG Generator-->
  <defs id="genericDefs" />
  <g>
    <g style="fill:white; stroke:white;">
      <rect x="0" y="0" width="1901" style="stroke:none;" height="880" />
    </g>
    <g style="font-family:sans-serif; font-size:14;">
      <text xml:space="preserve" x="42" y="289" style="stroke:none;">FlorenceDepartures</text>
      <text xml:space="preserve" x="497" y="299" style="stroke:none;">PistoiaToLucca</text>
      <text xml:space="preserve" x="488" y="359" style="stroke:none;">PistoiaToFlorence</text>
      <text xml:space="preserve" x="44" y="399" style="stroke:none;">FlorenceArrivals</text>
      <text xml:space="preserve" x="769" y="339" style="stroke:none;">FaultyTrain</text>
      <text xml:space="preserve" x="1008" y="299" style="stroke:none;">LuccaToViareggio</text>
      <text xml:space="preserve" x="1017" y="369" style="stroke:none;">LuccaToPistoia</text>
      <text xml:space="preserve" x="1532" y="259" style="stroke:none;">ViareggioArrivals</text>
      <text xml:space="preserve" x="1530" y="389" style="stroke:none;">ViareggioDepartures</text>
      <text xml:space="preserve" x="676" y="309" style="stroke:none;">Signal</text>
      <text xml:space="preserve" x="194" y="229" style="stroke:none;">EnableFlorencePistoia</text>
      <text xml:space="preserve" x="224" y="439" style="stroke:none;">EnablePistoiaFlorence</text>
      <text xml:space="preserve" x="593" y="179" style="stroke:none;">EnablePistoiaLucca</text>
      <text xml:space="preserve" x="1144" y="219" style="stroke:none;">EnableLuccaViareggio</text>
      <text xml:space="preserve" x="1194" y="449" style="stroke:none;">EnableViareggioLucca</text>
      <text xml:space="preserve" x="613" y="469" style="stroke:none;">EnableLuccaPistoia</text>
      <text xml:space="preserve" x="930" y="339" style="stroke:none;">GateFaulty</text>
      <text xml:space="preserve" x="873" y="173" style="stroke:none;">GatePistoiaToLucca</text>
      <text xml:space="preserve" x="891" y="463" style="stroke:none;">GateLuccaToPistoia</text>
      <text xml:space="preserve" x="351" y="234" style="stroke:none;">trackFlorencePistoia</text>
      <text xml:space="preserve" x="96" y="354" style="stroke:none;">FlorenceCleaningService</text>
      <text xml:space="preserve" x="381" y="444" style="stroke:none;">trackPistoiaFlorence</text>
      <text xml:space="preserve" x="741" y="184" style="stroke:none;">trackPistoiaToLucca</text>
      <text xml:space="preserve" x="866" y="344" style="stroke:none;">failure</text>
      <text xml:space="preserve" x="1331" y="224" style="stroke:none;">trackLuccaViareggio</text>
      <text xml:space="preserve" x="1351" y="454" style="stroke:none;">trackViareggioLucca</text>
      <text xml:space="preserve" x="1444" y="324" style="stroke:none;">ViareggioCleaningService</text>
      <text xml:space="preserve" x="750" y="474" style="stroke:none;">trackLuccaPistoia</text>
      <line x1="175" x2="125" y1="325" style="fill:none;" y2="281" />
      <polygon style="stroke:none;" points=" 115 273 120 282 125 276 115 273" />
      <line x1="115" x2="125" y1="273" style="fill:none;" y2="281" />
      <line x1="415" x2="525" y1="205" style="fill:none;" y2="265" />
      <polygon style="stroke:none;" points=" 535 270 529 262 525 269 535 270" />
      <line x1="535" x2="525" y1="270" style="fill:none;" y2="265" />
      <line x1="955" x2="1031" y1="439" style="fill:none;" y2="438" />
      <line x1="1031" x2="1029" y1="438" style="fill:none;" y2="505" />
      <line x1="1029" x2="595" y1="505" style="fill:none;" y2="505" />
      <line x1="595" x2="545" y1="505" style="fill:none;" y2="335" />
      <line x1="445" x2="535" y1="415" style="fill:none;" y2="415" />
      <line x1="535" x2="535" y1="415" style="fill:none;" y2="475" />
      <line x1="535" x2="205" y1="475" style="fill:none;" y2="475" />
      <line x1="205" x2="115" y1="475" style="fill:none;" y2="393" />
      <polygon style="stroke:none;" points=" 105 384 109 393 114 387 105 384" />
      <line x1="105" x2="115" y1="384" style="fill:none;" y2="393" />
      <line x1="805" x2="805" y1="161" style="fill:none;" y2="305" />
      <polygon style="stroke:none;" points=" 805 305 809 296 801 296 805 305" />
      <line x1="805" x2="805" y1="305" style="fill:none;" y2="305" />
      <line x1="805" x2="857" y1="451" style="fill:none;" y2="451" />
      <line x1="857" x2="857" y1="451" style="fill:none;" y2="364" />
      <line x1="857" x2="825" y1="364" style="fill:none;" y2="333" />
      <polygon style="stroke:none;" points=" 815 324 819 333 824 328 815 324" />
      <line x1="815" x2="825" y1="324" style="fill:none;" y2="333" />
      <line x1="937" x2="1065" y1="149" style="fill:none;" y2="275" />
      <line x1="1415" x2="1505" y1="425" style="fill:none;" y2="425" />
      <line x1="1505" x2="1505" y1="425" style="fill:none;" y2="485" />
      <line x1="1505" x2="1195" y1="485" style="fill:none;" y2="485" />
      <line x1="1195" x2="1083" y1="485" style="fill:none;" y2="364" />
      <polygon style="stroke:none;" points=" 1075 355 1078 364 1084 359 1075 355" />
      <line x1="1075" x2="1083" y1="355" style="fill:none;" y2="364" />
      <line x1="1395" x2="1565" y1="195" style="fill:none;" y2="231" />
      <polygon style="stroke:none;" points=" 1575 233 1567 227 1565 235 1575 233" />
      <line x1="1575" x2="1565" y1="233" style="fill:none;" y2="231" />
      <line x1="1525" x2="1576" y1="295" style="fill:none;" y2="348" />
      <polygon style="stroke:none;" points=" 1585 356 1581 347 1576 352 1585 356" />
      <line x1="1585" x2="1576" y1="356" style="fill:none;" y2="348" />
      <line x1="105" x2="265" y1="265" style="fill:none;" y2="205" />
      <line x1="545" x2="265" y1="335" style="fill:none;" y2="335" />
      <line x1="265" x2="265" y1="335" style="fill:none;" y2="415" />
      <line x1="265" x2="295" y1="415" style="fill:none;" y2="415" />
      <line x1="545" x2="655" y1="275" style="fill:none;" y2="155" />
      <line x1="1065" x2="1215" y1="275" style="fill:none;" y2="195" />
      <line x1="1595" x2="1225" y1="365" style="fill:none;" y2="365" />
      <line x1="1225" x2="1225" y1="365" style="fill:none;" y2="425" />
      <line x1="1225" x2="1265" y1="425" style="fill:none;" y2="425" />
      <line x1="1065" x2="949" y1="345" style="fill:none;" y2="386" />
      <line x1="949" x2="636" y1="386" style="fill:none;" y2="386" />
      <line x1="636" x2="636" y1="386" style="fill:none;" y2="443" />
      <line x1="636" x2="675" y1="443" style="fill:none;" y2="445" />
      <line x1="885" x2="965" y1="315" style="fill:none;" y2="315" />
      <line x1="805" x2="937" y1="149" style="fill:none;" y2="149" />
      <line x1="805" x2="955" y1="439" style="fill:none;" y2="439" />
      <line x1="265" x2="415" y1="205" style="fill:none;" y2="205" />
      <line x1="95" x2="162" y1="375" style="fill:none;" y2="332" />
      <polygon style="stroke:none;" points=" 172 326 162 328 166 334 172 326" />
      <line x1="172" x2="162" y1="326" style="fill:none;" y2="332" />
      <line x1="295" x2="445" y1="415" style="fill:none;" y2="415" />
      <line x1="655" x2="805" y1="155" style="fill:none;" y2="155" />
      <line x1="805" x2="873" y1="315" style="fill:none;" y2="315" />
      <polygon style="stroke:none;" points=" 882 315 873 311 873 319 882 315" />
      <line x1="882" x2="873" y1="315" style="fill:none;" y2="315" />
      <line x1="1215" x2="1395" y1="195" style="fill:none;" y2="195" />
      <line x1="1265" x2="1415" y1="425" style="fill:none;" y2="425" />
      <line x1="1585" x2="1536" y1="235" style="fill:none;" y2="283" />
      <polygon style="stroke:none;" points=" 1528 292 1537 288 1532 283 1528 292" />
      <line x1="1528" x2="1536" y1="292" style="fill:none;" y2="283" />
      <line x1="675" x2="805" y1="445" style="fill:none;" y2="445" />
      <circle style="fill:blue; stroke:none;" r="9.5" cx="104.5" cy="264.5" />
      <circle style="fill:blue; stroke:none;" r="9.5" cx="544.5" cy="274.5" />
      <circle style="fill:blue; stroke:none;" r="9.5" cx="544.5" cy="334.5" />
      <circle style="fill:blue; stroke:none;" r="9.5" cx="94.5" cy="374.5" />
      <circle style="fill:blue; stroke:none;" r="9.5" cx="804.5" cy="314.5" />
      <circle style="fill:blue; stroke:none;" r="9.5" cx="1064.5" cy="274.5" />
      <circle style="fill:blue; stroke:none;" r="9.5" cx="1064.5" cy="344.5" />
      <circle style="fill:blue; stroke:none;" r="9.5" cx="1584.5" cy="234.5" />
      <circle style="fill:blue; stroke:none;" r="9.5" cx="1594.5" cy="364.5" />
      <circle style="fill:blue; stroke:none;" r="9.5" cx="694.5" cy="284.5" />
      <polygon style="fill:red; stroke:none;" points=" 255 205 275 195 275 215" />
      <polygon style="fill:red; stroke:none;" points=" 285 415 305 405 305 425" />
      <polygon style="fill:red; stroke:none;" points=" 645 155 665 145 665 165" />
      <polygon style="fill:red; stroke:none;" points=" 1205 195 1225 185 1225 205" />
      <polygon style="fill:red; stroke:none;" points=" 1255 425 1275 415 1275 435" />
      <polygon style="fill:red; stroke:none;" points=" 665 445 685 435 685 455" />
      <polygon style="stroke:none;" points=" 975 315 955 305 955 325" />
      <polygon style="stroke:none;" points=" 947 149 927 139 927 159" />
      <polygon style="stroke:none;" points=" 965 439 945 429 945 449" />
      <rect x="412" y="190" width="6" style="fill:blue; stroke:none;" rx="3" ry="3" height="30" />
      <rect x="172" y="310" width="6" style="fill:blue; stroke:none;" rx="3" ry="3" height="30" />
      <rect x="442" y="400" width="6" style="fill:blue; stroke:none;" rx="3" ry="3" height="30" />
      <rect x="799" y="140" width="6" style="fill:blue; stroke:none;" rx="3" ry="3" height="30" />
      <circle style="fill:blue; stroke:none;" r="3" cx="808" cy="149" />
      <circle style="fill:blue; stroke:none;" r="3" cx="808" cy="161" />
      <rect x="882" y="300" width="6" style="fill:blue; stroke:none;" rx="3" ry="3" height="30" />
      <rect x="1392" y="180" width="6" style="fill:blue; stroke:none;" rx="3" ry="3" height="30" />
      <rect x="1412" y="410" width="6" style="fill:blue; stroke:none;" rx="3" ry="3" height="30" />
      <rect x="1522" y="280" width="6" style="fill:blue; stroke:none;" rx="3" ry="3" height="30" />
      <rect x="799" y="430" width="6" style="fill:blue; stroke:none;" rx="3" ry="3" height="30" />
      <circle style="fill:blue; stroke:none;" r="3" cx="808" cy="439" />
      <circle style="fill:blue; stroke:none;" r="3" cx="808" cy="451" />
      <text xml:space="preserve" x="74" y="180" style="stroke:none;">Florence </text>
      <text xml:space="preserve" x="74" y="199" style="stroke:none;">Terminal </text>
      <text xml:space="preserve" x="515" y="174" style="stroke:none;">Pistoia </text>
      <text xml:space="preserve" x="515" y="193" style="stroke:none;">Station </text>
      <text xml:space="preserve" x="686" y="52" style="stroke:none;">------------------------------------ </text>
      <text xml:space="preserve" x="686" y="71" style="stroke:none;">| Policy 1 : Alternation </text>
      <text xml:space="preserve" x="686" y="90" style="stroke:none;">------------------------------------ </text>
      <text xml:space="preserve" x="1039" y="165" style="stroke:none;">Lucca </text>
      <text xml:space="preserve" x="1039" y="184" style="stroke:none;">Station </text>
      <text xml:space="preserve" x="1552" y="163" style="stroke:none;">Viareggio </text>
      <text xml:space="preserve" x="1552" y="182" style="stroke:none;">Terminal </text>
    </g>
  </g>
</svg>
