<?xml version="1.0" encoding="UTF-8"?>

<!DOCTYPE svg PUBLIC '-//W3C//DTD SVG 1.0//EN' 'http://www.w3.org/TR/2001/REC-SVG-20010904/DTD/svg10.dtd'>
<svg style="fill-opacity:1; color-rendering:auto; color-interpolation:auto; text-rendering:auto; stroke:black; stroke-linecap:square; stroke-miterlimit:10; shape-rendering:auto; stroke-opacity:1; fill:black; stroke-dasharray:none; font-weight:normal; stroke-width:1; font-family:&apos;Dialog&apos;; font-style:normal; stroke-linejoin:miter; font-size:12; stroke-dashoffset:0; image-rendering:auto;" xmlns="http://www.w3.org/2000/svg" width="1621.0" xmlns:xlink="http://www.w3.org/1999/xlink" height="483.0">
  <!--Generated by the Batik Graphics2D SVG Generator-->
  <defs id="genericDefs" />
  <g>
    <g style="fill:white; stroke:white;">
      <rect x="0" y="0" width="1901" style="stroke:none;" height="880" />
    </g>
    <g style="font-family:sans-serif; font-size:14;">
      <text xml:space="preserve" x="2" y="263" style="stroke:none;">FlorenceDepartures</text>
      <text xml:space="preserve" x="4" y="373" style="stroke:none;">FlorenceArrivals</text>
      <text xml:space="preserve" x="457" y="273" style="stroke:none;">PistoiaToLucca</text>
      <text xml:space="preserve" x="448" y="333" style="stroke:none;">PistoiaToFlorence</text>
      <text xml:space="preserve" x="636" y="283" style="stroke:none;">Signal</text>
      <text xml:space="preserve" x="729" y="313" style="stroke:none;">FaultyTrain</text>
      <text xml:space="preserve" x="968" y="273" style="stroke:none;">LuccaToViareggio</text>
      <text xml:space="preserve" x="977" y="343" style="stroke:none;">LuccaToPistoia</text>
      <text xml:space="preserve" x="1492" y="233" style="stroke:none;">ViareggioArrivals</text>
      <text xml:space="preserve" x="1490" y="363" style="stroke:none;">ViareggioDepartures</text>
      <text xml:space="preserve" x="792" y="244" style="stroke:none;">SignalFaulty</text>
      <text xml:space="preserve" x="154" y="203" style="stroke:none;">EnableFlorencePistoia</text>
      <text xml:space="preserve" x="184" y="413" style="stroke:none;">EnablePistoiaFlorence</text>
      <text xml:space="preserve" x="553" y="153" style="stroke:none;">EnablePistoiaLucca</text>
      <text xml:space="preserve" x="573" y="443" style="stroke:none;">EnableLuccaPistoia</text>
      <text xml:space="preserve" x="1104" y="193" style="stroke:none;">EnableLuccaViareggio</text>
      <text xml:space="preserve" x="1154" y="423" style="stroke:none;">EnableViareggioLucca</text>
      <text xml:space="preserve" x="833" y="147" style="stroke:none;">GatePistoiaToLucca</text>
      <text xml:space="preserve" x="890" y="313" style="stroke:none;">GateFaulty</text>
      <text xml:space="preserve" x="851" y="437" style="stroke:none;">GateLuccaToPistoia</text>
      <text xml:space="preserve" x="56" y="328" style="stroke:none;">FlorenceCleaningService</text>
      <text xml:space="preserve" x="311" y="208" style="stroke:none;">trackFlorencePistoia</text>
      <text xml:space="preserve" x="341" y="418" style="stroke:none;">trackPistoiaFlorence</text>
      <text xml:space="preserve" x="701" y="158" style="stroke:none;">trackPistoiaToLucca</text>
      <text xml:space="preserve" x="710" y="448" style="stroke:none;">trackLuccaPistoia</text>
      <text xml:space="preserve" x="826" y="318" style="stroke:none;">failure</text>
      <text xml:space="preserve" x="1291" y="198" style="stroke:none;">trackLuccaViareggio</text>
      <text xml:space="preserve" x="1311" y="428" style="stroke:none;">trackViareggioLucca</text>
      <text xml:space="preserve" x="1404" y="298" style="stroke:none;">ViareggioCleaningService</text>
      <line x1="135" x2="85" y1="299" style="fill:none;" y2="255" />
      <polygon style="stroke:none;" points=" 75 247 80 256 85 250 75 247" />
      <line x1="75" x2="85" y1="247" style="fill:none;" y2="255" />
      <line x1="405" x2="495" y1="389" style="fill:none;" y2="389" />
      <line x1="495" x2="495" y1="389" style="fill:none;" y2="449" />
      <line x1="495" x2="165" y1="449" style="fill:none;" y2="449" />
      <line x1="165" x2="75" y1="449" style="fill:none;" y2="367" />
      <polygon style="stroke:none;" points=" 65 358 69 367 74 361 65 358" />
      <line x1="65" x2="75" y1="358" style="fill:none;" y2="367" />
      <line x1="375" x2="485" y1="179" style="fill:none;" y2="239" />
      <polygon style="stroke:none;" points=" 495 244 489 236 485 243 495 244" />
      <line x1="495" x2="485" y1="244" style="fill:none;" y2="239" />
      <line x1="915" x2="991" y1="413" style="fill:none;" y2="412" />
      <line x1="991" x2="989" y1="412" style="fill:none;" y2="479" />
      <line x1="989" x2="555" y1="479" style="fill:none;" y2="479" />
      <line x1="555" x2="505" y1="479" style="fill:none;" y2="309" />
      <line x1="765" x2="765" y1="135" style="fill:none;" y2="279" />
      <polygon style="stroke:none;" points=" 765 279 769 270 761 270 765 279" />
      <line x1="765" x2="765" y1="279" style="fill:none;" y2="279" />
      <line x1="765" x2="817" y1="425" style="fill:none;" y2="425" />
      <line x1="817" x2="817" y1="425" style="fill:none;" y2="338" />
      <line x1="817" x2="785" y1="338" style="fill:none;" y2="307" />
      <polygon style="stroke:none;" points=" 775 298 779 307 784 302 775 298" />
      <line x1="775" x2="785" y1="298" style="fill:none;" y2="307" />
      <line x1="897" x2="1025" y1="123" style="fill:none;" y2="249" />
      <line x1="1375" x2="1465" y1="399" style="fill:none;" y2="399" />
      <line x1="1465" x2="1465" y1="399" style="fill:none;" y2="459" />
      <line x1="1465" x2="1155" y1="459" style="fill:none;" y2="459" />
      <line x1="1155" x2="1043" y1="459" style="fill:none;" y2="338" />
      <polygon style="stroke:none;" points=" 1035 329 1038 338 1044 333 1035 329" />
      <line x1="1035" x2="1043" y1="329" style="fill:none;" y2="338" />
      <line x1="1355" x2="1525" y1="169" style="fill:none;" y2="205" />
      <polygon style="stroke:none;" points=" 1535 207 1527 201 1525 209 1535 207" />
      <line x1="1535" x2="1525" y1="207" style="fill:none;" y2="205" />
      <line x1="1485" x2="1536" y1="269" style="fill:none;" y2="322" />
      <polygon style="stroke:none;" points=" 1545 330 1541 321 1536 326 1545 330" />
      <line x1="1545" x2="1536" y1="330" style="fill:none;" y2="322" />
      <line x1="765" x2="817" y1="135" style="fill:none;" y2="200" />
      <polygon style="stroke:none;" points=" 824 210 821 200 815 205 824 210" />
      <line x1="824" x2="817" y1="210" style="fill:none;" y2="200" />
      <line x1="65" x2="225" y1="239" style="fill:none;" y2="179" />
      <line x1="505" x2="225" y1="309" style="fill:none;" y2="309" />
      <line x1="225" x2="225" y1="309" style="fill:none;" y2="389" />
      <line x1="225" x2="255" y1="389" style="fill:none;" y2="389" />
      <line x1="505" x2="615" y1="249" style="fill:none;" y2="129" />
      <line x1="1025" x2="909" y1="319" style="fill:none;" y2="360" />
      <line x1="909" x2="596" y1="360" style="fill:none;" y2="360" />
      <line x1="596" x2="596" y1="360" style="fill:none;" y2="417" />
      <line x1="596" x2="635" y1="417" style="fill:none;" y2="419" />
      <line x1="1025" x2="1175" y1="249" style="fill:none;" y2="169" />
      <line x1="1555" x2="1185" y1="339" style="fill:none;" y2="339" />
      <line x1="1185" x2="1185" y1="339" style="fill:none;" y2="399" />
      <line x1="1185" x2="1225" y1="399" style="fill:none;" y2="399" />
      <line x1="765" x2="897" y1="123" style="fill:none;" y2="123" />
      <line x1="845" x2="925" y1="289" style="fill:none;" y2="289" />
      <line x1="765" x2="915" y1="413" style="fill:none;" y2="413" />
      <line x1="55" x2="122" y1="349" style="fill:none;" y2="306" />
      <polygon style="stroke:none;" points=" 132 300 122 302 126 308 132 300" />
      <line x1="132" x2="122" y1="300" style="fill:none;" y2="306" />
      <line x1="225" x2="375" y1="179" style="fill:none;" y2="179" />
      <line x1="255" x2="405" y1="389" style="fill:none;" y2="389" />
      <line x1="615" x2="765" y1="129" style="fill:none;" y2="129" />
      <line x1="635" x2="765" y1="419" style="fill:none;" y2="419" />
      <line x1="765" x2="833" y1="289" style="fill:none;" y2="289" />
      <polygon style="stroke:none;" points=" 842 289 833 285 833 293 842 289" />
      <line x1="842" x2="833" y1="289" style="fill:none;" y2="289" />
      <line x1="1175" x2="1355" y1="169" style="fill:none;" y2="169" />
      <line x1="1225" x2="1375" y1="399" style="fill:none;" y2="399" />
      <line x1="1545" x2="1496" y1="209" style="fill:none;" y2="257" />
      <polygon style="stroke:none;" points=" 1488 266 1497 262 1492 257 1488 266" />
      <line x1="1488" x2="1496" y1="266" style="fill:none;" y2="257" />
      <circle style="fill:blue; stroke:none;" r="9.5" cx="64.5" cy="238.5" />
      <circle style="fill:blue; stroke:none;" r="9.5" cx="54.5" cy="348.5" />
      <circle style="fill:blue; stroke:none;" r="9.5" cx="504.5" cy="248.5" />
      <circle style="fill:blue; stroke:none;" r="9.5" cx="504.5" cy="308.5" />
      <circle style="fill:blue; stroke:none;" r="9.5" cx="654.5" cy="258.5" />
      <circle style="fill:blue; stroke:none;" r="9.5" cx="764.5" cy="288.5" />
      <circle style="fill:blue; stroke:none;" r="9.5" cx="1024.5" cy="248.5" />
      <circle style="fill:blue; stroke:none;" r="9.5" cx="1024.5" cy="318.5" />
      <circle style="fill:blue; stroke:none;" r="9.5" cx="1544.5" cy="208.5" />
      <circle style="fill:blue; stroke:none;" r="9.5" cx="1554.5" cy="338.5" />
      <circle style="fill:blue; stroke:none;" r="9.5" cx="830.5" cy="219.5" />
      <polygon style="fill:red; stroke:none;" points=" 215 179 235 169 235 189" />
      <polygon style="fill:red; stroke:none;" points=" 245 389 265 379 265 399" />
      <polygon style="fill:red; stroke:none;" points=" 605 129 625 119 625 139" />
      <polygon style="fill:red; stroke:none;" points=" 625 419 645 409 645 429" />
      <polygon style="fill:red; stroke:none;" points=" 1165 169 1185 159 1185 179" />
      <polygon style="fill:red; stroke:none;" points=" 1215 399 1235 389 1235 409" />
      <polygon style="stroke:none;" points=" 907 123 887 113 887 133" />
      <polygon style="stroke:none;" points=" 935 289 915 279 915 299" />
      <polygon style="stroke:none;" points=" 925 413 905 403 905 423" />
      <rect x="132" y="284" width="6" style="fill:blue; stroke:none;" rx="3" ry="3" height="30" />
      <rect x="372" y="164" width="6" style="fill:blue; stroke:none;" rx="3" ry="3" height="30" />
      <rect x="402" y="374" width="6" style="fill:blue; stroke:none;" rx="3" ry="3" height="30" />
      <rect x="759" y="114" width="6" style="fill:blue; stroke:none;" rx="3" ry="3" height="30" />
      <circle style="fill:blue; stroke:none;" r="3" cx="768" cy="123" />
      <circle style="fill:blue; stroke:none;" r="3" cx="768" cy="135" />
      <rect x="759" y="404" width="6" style="fill:blue; stroke:none;" rx="3" ry="3" height="30" />
      <circle style="fill:blue; stroke:none;" r="3" cx="768" cy="413" />
      <circle style="fill:blue; stroke:none;" r="3" cx="768" cy="425" />
      <rect x="842" y="274" width="6" style="fill:blue; stroke:none;" rx="3" ry="3" height="30" />
      <rect x="1352" y="154" width="6" style="fill:blue; stroke:none;" rx="3" ry="3" height="30" />
      <rect x="1372" y="384" width="6" style="fill:blue; stroke:none;" rx="3" ry="3" height="30" />
      <rect x="1482" y="254" width="6" style="fill:blue; stroke:none;" rx="3" ry="3" height="30" />
      <text xml:space="preserve" x="34" y="154" style="stroke:none;">Florence </text>
      <text xml:space="preserve" x="34" y="173" style="stroke:none;">Terminal </text>
      <text xml:space="preserve" x="475" y="148" style="stroke:none;">Pistoia </text>
      <text xml:space="preserve" x="475" y="167" style="stroke:none;">Station </text>
      <text xml:space="preserve" x="646" y="26" style="stroke:none;">------------------------------------ </text>
      <text xml:space="preserve" x="646" y="45" style="stroke:none;">| Policy 1 : LuccaFirst </text>
      <text xml:space="preserve" x="646" y="64" style="stroke:none;">------------------------------------ </text>
      <text xml:space="preserve" x="999" y="139" style="stroke:none;">Lucca </text>
      <text xml:space="preserve" x="999" y="158" style="stroke:none;">Station </text>
      <text xml:space="preserve" x="1512" y="137" style="stroke:none;">Viareggio </text>
      <text xml:space="preserve" x="1512" y="156" style="stroke:none;">Terminal </text>
    </g>
  </g>
</svg>
